Coordinates
version=1
nRows=19
nColumns=33
inDegrees=yes

Units are S.I. units (second, meters, Newtons, ...)
Angles are in degrees.

endheader
time	ground_thorax_rot_x	ground_thorax_rot_y	ground_thorax_rot_z	ground_thorax_tx	ground_thorax_ty	ground_thorax_tz	clav_prot_r	clav_elev_r	scapula_abduction_r	scapula_elevation_r	scapula_upward_rot_r	scapula_winging_r	shoulder_elv_r	plane_of_elev_r	axial_rot_r	elbow_flexion_r	pro_sup_r	wrist_flex_r	wrist_dev_r	clav_prot_l	clav_elev_l	scapula_abduction_l	scapula_elevation_l	scapula_upward_rot_l	scapula_winging_l	shoulder_elv_l	plane_of_elev_l	axial_rot_l	elbow_flexion_l	pro_sup_l	wrist_flex_l	wrist_dev_l
      3.67000000	    -41.12883947	     -6.40812304	     11.48337404	   -140.47474952	    814.52768871	      0.68659537	     10.91655255	    -45.00000000	     45.00000000	    -45.00000000	    -35.48645912	   2427.00939333	   -824.72956992	    144.49487063	    179.99999979	   1450.18628810	     39.08543145	     21.22572543	     13.84884340	     17.59337645	     42.61780667	    -44.46496949	    -45.00000000	    -31.65877432	   -996.43933640	   -456.78180573	    132.41287901	   -154.71645180	   2168.14676239	     23.30561258	     10.96048816	    -20.90112906
      3.68000000	    -41.26866720	     -6.14617962	     11.10376624	   -135.63272080	    812.72899734	      0.82226491	     10.67509100	    -45.00000000	     45.00000000	    -45.00000000	    -34.26710416	   2427.44428149	   -825.05481630	    144.54337954	    179.99999979	   1450.13024556	     39.09423818	     21.10167495	     14.01773370	     17.82612676	     42.86548030	    -44.97023346	    -45.00000000	    -30.98591103	   -996.55364247	   -456.85788590	    132.18374732	   -153.73199446	   2167.85721716	     23.89682563	     11.17603646	    -20.73417220
      3.69000000	    -41.30393005	     -6.22065650	     10.92029908	   -130.78827602	    810.82951976	      0.91451106	     10.53528083	    -45.00000000	     45.00000000	    -45.00000000	    -33.36682151	   2428.03191880	   -825.20236770	    144.62082169	    179.99999979	   1449.92255220	     39.22611860	     20.92384066	     14.10574955	     17.80628212	     43.12242483	    -45.00000000	    -45.00000000	    -30.23520410	   -996.92208904	   -457.04082998	    132.08972123	   -152.73255043	   2167.64745120	     24.50160640	     11.36377700	    -20.60172773
      3.70000000	    -41.33725860	     -6.26113986	     10.73969307	   -125.95334738	    808.85590645	      0.96321196	     10.44412167	    -45.00000000	     45.00000000	    -45.00000000	    -32.55455080	   2428.53050372	   -825.43088009	    144.64947199	    179.99999979	   1449.77340620	     39.38491501	     20.75938751	     14.17198767	     17.69716792	     43.32560807	    -45.00000000	    -45.00000000	    -29.53051993	   -997.20135756	   -457.13678341	    131.83981242	   -151.87569850	   2167.39987575	     25.15873115	     11.54900973	    -20.48352339
      3.71000000	    -41.40940268	     -6.29577058	     10.54036872	   -121.14445813	    806.83821412	      0.97155367	     10.27484744	    -45.00000000	     45.00000000	    -45.00000000	    -31.69295866	   2429.04462842	   -825.72083139	    144.72722665	    179.99999979	   1449.62021939	     39.58393956	     20.61842734	     14.26623378	     17.74973000	     43.51793559	    -45.00000000	    -45.00000000	    -28.89923340	   -997.60727708	   -457.13401623	    131.64222173	   -150.79767494	   2167.04045820	     25.84173519	     11.68082969	    -20.35163887
      3.72000000	    -41.52686123	     -6.09509577	     10.04443921	   -116.37544600	    804.80574319	      0.94325035	     10.02908303	    -45.00000000	     45.00000000	    -45.00000000	    -30.46958693	   2429.60790490	   -825.97672478	    144.75816615	    179.99999979	   1449.32569781	     39.80613834	     20.51079667	     14.50155896	     17.75812086	     43.69603863	    -45.00000000	    -45.00000000	    -27.95337140	   -998.10089000	   -457.11781329	    131.59019000	   -149.58230336	   2166.81492906	     26.68290094	     11.77245585	    -20.28129518
      3.73000000	    -41.58922978	     -6.00800331	      9.68132550	   -111.65980169	    802.78790777	      0.88296321	      9.80898427	    -45.00000000	     45.00000000	    -45.00000000	    -29.54816603	   2430.14189543	   -826.22971989	    144.78488311	    179.99999979	   1449.09353491	     40.06453312	     20.38692974	     14.65571552	     17.75729473	     43.87227104	    -45.00000000	    -45.00000000	    -27.25524312	   -998.57541481	   -457.10493726	    131.38398415	   -148.19855770	   2166.42139736	     27.64467349	     11.87943304	    -20.20641392
      3.74000000	    -41.65736959	     -6.17436265	      9.56742618	   -106.99526727	    800.80254978	      0.78749639	      9.80027215	    -45.00000000	     45.00000000	    -45.00000000	    -28.86572551	   2430.68926653	   -826.56747275	    144.92482437	    179.99999979	   1448.84611828	     40.25575005	     20.18481428	     14.63448840	     17.77242004	     44.07070269	    -45.00000000	    -45.00000000	    -26.84120502	   -998.89353470	   -457.13262617	    131.08778137	   -146.90677601	   2165.96566674	     28.65520646	     11.94625570	    -20.12786805
      3.75000000	    -41.72789602	     -6.08792124	      9.21258668	   -102.40573878	    798.87811292	      0.66360517	      9.65478229	    -45.00000000	     45.00000000	    -45.00000000	    -28.00087153	   2431.16583634	   -826.84778216	    144.95034769	    179.99999979	   1448.63062890	     40.38867370	     20.04465953	     14.77186122	     17.89785662	     44.20296745	    -45.00000000	    -45.00000000	    -26.30680047	   -999.34007560	   -456.98818830	    130.75125503	   -145.27867716	   2165.50518591	     29.81482134	     12.00251688	    -20.07212730
      3.76000000	    -41.81428036	     -6.14652451	      8.89478414	    -97.92414353	    797.04239984	      0.51762189	      9.50413817	    -45.00000000	     45.00000000	    -45.00000000	    -27.23405908	   2431.74207603	   -827.15673462	    145.03847490	    179.99999979	   1448.31141190	     40.54902375	     19.88026135	     14.87975747	     17.77941985	     44.37566060	    -45.00000000	    -45.00000000	    -25.68036201	   -999.78462390	   -456.94939135	    130.64158734	   -143.68243313	   2165.06253003	     31.06007553	     12.03824630	    -20.03553004
      3.77000000	    -41.91461688	     -6.02058274	      8.37620008	    -93.59937936	    795.32950592	      0.36398928	      9.27550317	    -45.00000000	     45.00000000	    -45.00000000	    -26.28967507	   2432.29401583	   -827.44107948	    145.06286579	    179.99999979	   1448.02186558	     40.77034854	     19.74051448	     15.00194541	     17.73918880	     44.56137111	    -45.00000000	    -45.00000000	    -24.87668273	  -1000.16581527	   -456.89872120	    130.45648392	   -142.05214131	   2164.61603607	     32.40363267	     12.03928553	    -20.00506117
      3.78000000	    -41.99839802	     -5.92387349	      7.93914589	    -89.45316342	    793.75689999	      0.20767553	      9.09802886	    -45.00000000	     45.00000000	    -45.00000000	    -25.46117501	   2432.81441693	   -827.72488499	    145.11301946	    179.99999979	   1447.76042750	     41.03812126	     19.61438159	     15.08239618	     17.69302564	     44.75164937	    -45.00000000	    -45.00000000	    -24.21131514	  -1000.58967204	   -456.81121856	    130.29137067	   -140.56961341	   2164.17829091	     33.71588066	     12.00494661	    -19.97073557
      3.79000000	    -41.92991565	     -6.87561228	      8.59646629	    -85.52039361	    792.35164747	      0.06196179	      9.48740285	    -45.00000000	     45.00000000	    -45.00000000	    -27.29534728	   2433.14212464	   -827.57608504	    144.48237224	    179.99999979	   1447.58553620	     41.42225799	     19.46888806	     15.21781732	     16.16982865	     43.94203590	    -45.00000000	    -45.00000000	    -25.29852336	  -1000.69245320	   -456.74172910	    129.91066191	   -139.93085128	   2163.99815682	     34.47760746	     12.06533480	    -19.87271346
      3.80000000	    -42.03615340	     -5.81878015	      7.23880614	    -81.80564526	    791.11808755	     -0.06923503	      8.79217966	    -45.00000000	     45.00000000	    -45.00000000	    -23.80990002	   2433.69465922	   -828.29844734	    145.27684715	    179.99999979	   1447.25037845	     41.64250356	     19.38201617	     15.15698901	     17.56473489	     44.82752657	    -45.00000000	    -44.74171736	    -22.84651980	  -1001.17959004	   -456.78809279	    129.99430992	   -138.71319967	   2163.30771579	     35.74007423	     11.91957159	    -19.81805459
      3.81000000	    -42.00368575	     -5.91388429	      6.96926602	    -78.31566214	    790.07114353	     -0.17959332	      8.64864099	    -45.00000000	     45.00000000	    -45.00000000	    -23.28985368	   2434.12324573	   -828.50191806	    145.28318562	    179.99999979	   1446.99662869	     42.09424570	     19.29969772	     15.15372507	     17.35470975	     44.73167855	    -45.00000000	    -44.43968958	    -22.14689085	  -1001.33314738	   -456.80240519	    129.97715836	   -137.98567786	   2162.89887887	     36.83800539	     11.83495330	    -19.77032532
      3.82000000	    -41.94748274	     -5.99881212	      6.74517605	    -75.04792468	    789.21222885	     -0.26870367	      8.59942085	    -45.00000000	     45.00000000	    -45.00000000	    -22.65895445	   2434.45052867	   -828.74690579	    145.36128778	    179.99999979	   1446.82736552	     42.52567263	     19.23551505	     15.13028643	     17.09518352	     44.63749018	    -45.00000000	    -44.14811889	    -21.55305265	  -1001.48604811	   -456.78374368	    129.89332287	   -137.51378066	   2162.45964211	     37.80303639	     11.74066156	    -19.70315794
      3.83000000	    -41.86212442	     -6.63234734	      7.12322107	    -72.02384051	    788.55647487	     -0.32645378	      8.87982178	    -45.00000000	     45.00000000	    -45.00000000	    -23.86001662	   2434.70244348	   -828.67981600	    145.00237608	    179.99999979	   1446.69462712	     42.93554147	     19.13424546	     15.15631188	     16.30988092	     44.28870907	    -45.00000000	    -43.91628942	    -22.23323580	  -1001.58521540	   -456.46443406	    129.56031166	   -137.04683201	   2162.14478267	     38.34026216	     11.64123691	    -19.56733312
      3.84000000	    -41.83742970	     -6.63313144	      6.79825300	    -69.26512292	    788.11677558	     -0.34405567	      8.78977014	    -45.00000000	     45.00000000	    -45.00000000	    -23.10703716	   2435.01544886	   -828.87107081	    145.09357931	    179.99999979	   1446.48127084	     43.27021731	     19.08715428	     15.12120053	     16.43694356	     44.22026910	    -45.00000000	    -43.69724232	    -21.48881357	  -1001.73960439	   -456.50087052	    129.52268715	   -136.31117945	   2161.64409768	     38.95573513	     11.55035882	    -19.49058822
      3.85000000	    -41.82656759	     -6.55703450	      6.36877914	    -66.79938777	    787.90253363	     -0.31551083	      8.66320832	    -45.00000000	     45.00000000	    -45.00000000	    -22.35106318	   2435.32867600	   -829.01630947	    145.16236806	    179.99999979	   1446.28368646	     43.61716973	     19.04498555	     15.08883812	     16.26849923	     44.24523112	    -45.00000000	    -43.48809605	    -20.59486394	  -1001.82903179	   -456.51874668	    129.49608594	   -135.52708400	   2161.22295349	     39.61184409	     11.42879339	    -19.44002088
